<svg width="287" height="288" viewBox="0 0 287 288" fill="none" xmlns="http://www.w3.org/2000/svg">
<path fill-rule="evenodd" clip-rule="evenodd" d="M145.358 0.512062L244.765 98.2868L244.689 98.2615C209.853 95.8808 186.719 60.2009 108.278 95.8808C206.219 89.8912 200.725 138.349 261.707 115.179L261.935 115.174L284.26 137.131C210.783 156.601 199.911 96.1285 107.742 138.566C217.455 132.283 196.317 192.18 286.995 146.714L249.865 183.622C199.678 182.985 201.569 145.976 108.808 179.927C112.746 182.293 146.591 180.16 166.48 184.638C188.427 190.426 209.312 204.401 226.336 206.358L226.806 206.539L145.358 287.503L0 143.474L145.358 0.501953V0.512062Z" fill="white"/>
</svg>
