<svg width="257" height="84" viewBox="0 0 257 84" fill="none" xmlns="http://www.w3.org/2000/svg">
<path fill-rule="evenodd" clip-rule="evenodd" d="M41.4771 1.15816L69.8404 29.2024L69.8182 29.1944C59.8787 28.5127 53.2781 18.2792 30.8942 28.5127C58.8407 26.7943 57.2745 40.6924 74.6725 34.0469L74.7373 34.0449L81.1072 40.3435C60.1418 45.9282 57.0398 28.5833 30.7404 40.757C62.0459 38.9559 56.0139 56.1334 81.8883 43.0945L71.2933 53.6809C56.973 53.4974 57.5133 42.8827 31.044 52.6221C32.167 53.2997 41.8251 52.6886 47.501 53.9734C53.7637 55.6332 59.7209 59.6427 64.5813 60.2034L64.7149 60.2558L41.4751 83.4778L-0.000488281 42.1687L41.4751 1.16219L41.4771 1.15816ZM91.6861 36.7858H256.281V38.7522H91.6861V36.7858ZM104.764 64.8361V76.7577L104.736 78.1332C104.736 79.1154 104.98 79.8636 105.486 80.3699C105.994 80.866 106.735 81.1181 107.73 81.1181C109.195 81.1181 110.547 80.7995 111.785 80.144C113.026 79.4986 113.973 78.5527 114.63 77.3184C115.296 76.0921 115.626 74.7166 115.626 73.202C115.626 71.4614 115.221 69.8984 114.416 68.5229C113.609 67.1474 112.5 66.1834 111.083 65.6307C109.675 65.0781 107.562 64.8159 104.764 64.8361ZM104.764 62.6922C107.364 62.6922 109.28 62.4018 110.519 61.8209C111.757 61.232 112.706 60.4091 113.372 59.3503C114.029 58.2934 114.357 56.9361 114.357 55.2883C114.357 53.6507 114.029 52.3034 113.38 51.2446C112.732 50.1958 111.804 49.4012 110.592 48.8485C109.379 48.2959 107.437 48.0337 104.762 48.0539V62.6882L104.764 62.6922ZM114.772 63.4404C118.311 64.2552 120.8 65.2556 122.227 66.4254C124.283 68.0913 125.306 70.2433 125.306 72.8914C125.306 75.6888 124.179 78.0001 121.927 79.8253C119.157 82.0438 115.13 83.1471 109.853 83.1471H90.8969V82.1366C92.625 82.1366 93.7885 81.9773 94.4076 81.6506C95.0187 81.3319 95.4498 80.9205 95.6946 80.4062C95.9475 79.8919 96.071 78.6374 96.071 76.6246V52.5011C96.071 50.4882 95.9496 49.2257 95.6946 48.7013C95.4498 48.1769 95.0086 47.7655 94.3894 47.4569C93.7702 47.1383 92.6067 46.989 90.8969 46.989V45.9685H108.772C113.044 45.9685 116.077 46.3517 117.852 47.11C119.635 47.8684 121.035 48.9998 122.059 50.5064C123.091 52.013 123.599 53.6224 123.599 55.3166C123.599 57.1136 122.951 58.7049 121.646 60.1066C120.351 61.5002 118.058 62.6135 114.774 63.4384L114.772 63.4404ZM148.568 70.5337L143.02 57.7328L137.294 70.5337H148.568ZM149.507 72.5647H136.334L134.766 76.1869C134.244 77.391 133.995 78.3853 133.995 79.1719C133.995 80.2206 134.422 80.979 135.262 81.4731C135.756 81.7635 136.972 81.9874 138.914 82.1366V83.1471H126.512V82.1366C127.846 81.9309 128.949 81.3743 129.807 80.4707C130.667 79.5672 131.727 77.6955 132.998 74.8659L146.339 45.2021H146.865L160.309 75.6908C161.586 78.585 162.646 80.3981 163.474 81.1463C164.103 81.7171 164.985 82.0438 166.122 82.1386V83.1491H148.077V82.1386H148.819C150.266 82.1386 151.292 81.937 151.871 81.5295C152.278 81.2432 152.482 80.8176 152.482 80.267C152.482 79.9403 152.415 79.6055 152.312 79.2566C152.263 79.0912 152.002 78.4054 151.486 77.1974L149.505 72.5647H149.507ZM182.401 45.9705L199.704 69.0271V53.0436C199.704 50.817 199.405 49.3104 198.804 48.5238C197.974 47.467 196.588 46.9527 194.637 46.989V45.9685H206.22V46.989C204.737 47.1867 203.749 47.4468 203.237 47.7655C202.725 48.0842 202.327 48.6065 202.045 49.3286C201.764 50.0486 201.622 51.293 201.622 53.0436V83.9982H200.74L177.029 53.0436V76.6811C177.029 78.8149 177.488 80.2569 178.415 81.0052C179.334 81.7635 180.392 82.1366 181.576 82.1366H182.405V83.1471H169.967V82.1366C171.899 82.1185 173.243 81.697 174.002 80.8741C174.761 80.0512 175.141 78.6555 175.141 76.6811V50.4419L174.39 49.4496C173.65 48.4674 172.996 47.822 172.421 47.5033C171.857 47.1947 171.035 47.0253 169.967 46.989V45.9685H182.405L182.401 45.9705ZM232.428 60.2034L244.99 76.5701C246.771 78.8713 248.298 80.4344 249.575 81.2573C250.51 81.8381 251.491 82.1366 252.523 82.1366V83.1471H233.93V82.1366C235.107 82.0237 235.862 81.828 236.204 81.5558C236.554 81.2835 236.726 80.9467 236.726 80.5453C236.726 79.7789 235.917 78.3268 234.298 76.2131L226.107 65.4896L224.785 66.6412V76.7859C224.785 78.7221 224.893 79.9302 225.109 80.4082C225.316 80.8862 225.72 81.2875 226.313 81.6243C226.916 81.9712 227.869 82.1386 229.191 82.1386V83.1491H211.171V82.1386H212.357C213.391 82.1386 214.227 81.943 214.856 81.5578C215.315 81.3057 215.666 80.866 215.908 80.2388C216.107 79.8092 216.196 78.6576 216.196 76.7859V52.3337C216.196 50.4338 216.107 49.2459 215.908 48.7679C215.72 48.2919 215.324 47.8784 214.739 47.5235C214.146 47.1685 213.355 46.991 212.357 46.991H211.171V45.9705H228.948V46.991C227.744 46.991 226.817 47.1685 226.188 47.5336C225.73 47.7957 225.37 48.2253 225.109 48.8243C224.893 49.2822 224.785 50.4519 224.785 52.3337V63.9003L238.039 52.7451C239.883 51.1921 240.807 49.9477 240.807 49.02C240.807 48.3181 240.429 47.7756 239.674 47.3722C239.288 47.1665 238.325 47.0455 236.797 46.989V45.9685H250.733V46.989C249.482 47.0818 248.511 47.3077 247.801 47.6808C247.08 48.0559 245.445 49.3286 242.882 51.4805L232.424 60.2014L232.428 60.2034ZM115.484 1.08555V9.65111H114.673C114.185 7.66855 113.653 6.25272 113.064 5.39152C112.477 4.52428 111.666 3.84057 110.636 3.33031C110.063 3.04391 109.06 2.90878 107.629 2.90878H105.341V27.2965C105.341 28.912 105.426 29.9224 105.596 30.3298C105.774 30.7352 106.114 31.0862 106.615 31.3887C107.125 31.6993 107.813 31.8506 108.687 31.8506H109.707V32.7097H93.6286V31.8506H94.6484C95.5368 31.8506 96.2571 31.6832 96.7974 31.3564C97.192 31.1426 97.5016 30.7675 97.7242 30.233C97.8941 29.866 97.9791 28.8878 97.9791 27.2965V2.90878H95.7533C93.6893 2.90878 92.1818 3.35451 91.247 4.26209C89.9337 5.51859 89.1061 7.31963 88.7581 9.65111H87.9001V1.08555H115.482H115.484ZM118.253 1.08555H134.101V1.9528H133.311C132.122 1.9528 131.302 2.07986 130.853 2.33398C130.404 2.58811 130.088 2.9471 129.902 3.39283C129.716 3.84662 129.614 4.97605 129.614 6.77508V22.2564C129.614 25.0901 129.823 26.9617 130.24 27.8834C130.657 28.7991 131.338 29.5554 132.287 30.1685C133.239 30.7736 134.436 31.0761 135.889 31.0761C137.551 31.0761 138.967 30.6949 140.133 29.9224C141.308 29.15 142.18 28.0911 142.761 26.7378C143.342 25.3845 143.635 23.0289 143.635 19.6688V6.77306C143.635 5.35724 143.488 4.34478 143.202 3.73973C142.917 3.13467 142.553 2.71315 142.12 2.48323C141.44 2.12423 140.481 1.95078 139.236 1.95078V1.08354H149.857V1.95078H149.224C148.366 1.95078 147.648 2.12625 147.075 2.48323C146.503 2.84223 146.086 3.37468 145.831 4.09066C145.636 4.59285 145.537 5.4843 145.537 6.77306V18.7854C145.537 22.5025 145.299 25.1849 144.827 26.8326C144.347 28.4804 143.188 29.993 141.349 31.3786C139.509 32.7642 136.988 33.456 133.803 33.456C131.152 33.456 129.094 33.0889 127.642 32.3568C125.671 31.3625 124.27 30.0878 123.451 28.5369C122.639 26.9758 122.231 24.8924 122.231 22.2564V6.77508C122.231 4.95992 122.138 3.83048 121.937 3.38476C121.743 2.93904 121.403 2.58811 120.917 2.32592C120.438 2.05566 119.55 1.93666 118.25 1.9528V1.08555H118.253ZM162.98 18.2953V27.1634C162.98 28.8737 163.081 29.9487 163.281 30.3863C163.49 30.832 163.846 31.191 164.356 31.4532C164.874 31.7154 165.833 31.8526 167.239 31.8526V32.7117H151.517V31.8526C152.939 31.8526 153.898 31.7174 154.408 31.4391C154.91 31.1689 155.266 30.8179 155.475 30.3803C155.675 29.9426 155.776 28.8757 155.776 27.1654V6.646C155.776 4.9337 155.675 3.86074 155.475 3.41501C155.266 2.96929 154.91 2.61836 154.392 2.35617C153.882 2.08591 152.923 1.95885 151.517 1.95885V1.0916H165.786C169.506 1.0916 172.217 1.36186 173.941 1.88826C175.657 2.41466 177.065 3.39283 178.154 4.81672C179.237 6.23255 179.785 7.90452 179.785 9.81447C179.785 12.1459 178.965 14.0741 177.334 15.6008C176.29 16.5649 174.837 17.2889 172.966 17.7649L180.347 28.4703C181.315 29.8559 182.003 30.7151 182.403 31.0579C183.031 31.544 183.741 31.8062 184.56 31.8546V32.7138H174.89L164.995 18.2973H162.978L162.98 18.2953ZM162.98 2.78979V16.6395H164.271C166.365 16.6395 167.935 16.4479 168.979 16.0506C170.024 15.6532 170.843 14.9352 171.438 13.9006C172.033 12.866 172.334 11.5207 172.334 9.85682C172.334 7.44467 171.786 5.66985 170.687 4.51621C169.597 3.36257 167.834 2.78979 165.4 2.78979H162.98ZM202.064 0.647898C206.956 0.456297 210.931 1.9286 213.992 5.05068C217.046 8.17881 218.575 12.0875 218.575 16.7827C218.575 20.7942 217.438 24.3196 215.158 27.3691C212.135 31.4129 207.869 33.4338 202.357 33.4338C196.837 33.4338 192.563 31.5077 189.54 27.6474C187.159 24.598 185.961 20.9858 185.961 16.8069C185.961 12.1096 187.515 8.19494 190.615 5.06681C193.723 1.93061 197.533 0.458314 202.064 0.649915V0.647898ZM202.343 2.13633C199.528 2.13633 197.395 3.6167 195.926 6.56936C194.737 8.98958 194.14 12.4747 194.14 17.0126C194.14 22.4097 195.06 26.397 196.9 28.9765C198.183 30.7836 199.983 31.6832 202.296 31.6832C203.85 31.6832 205.149 31.2939 206.194 30.5215C207.515 29.5271 208.551 27.9338 209.294 25.7456C210.036 23.5653 210.406 20.7155 210.406 17.2042C210.406 13.0172 210.028 9.8891 209.269 7.81981C208.512 5.74246 207.553 4.27822 206.378 3.41905C205.21 2.56794 203.865 2.13835 202.343 2.13835V2.13633ZM231.781 1.08555L246.933 20.6994V7.10383C246.933 5.21001 246.67 3.92729 246.143 3.25972C245.417 2.3602 244.203 1.92255 242.495 1.95482V1.08757H252.637V1.95482C251.338 2.12221 250.472 2.34407 250.024 2.61634C249.575 2.8866 249.229 3.33232 248.98 3.94544C248.733 4.55857 248.61 5.61741 248.61 7.10584V33.4378H247.837L227.074 7.10584V27.2118C227.074 29.027 227.477 30.2532 228.288 30.8885C229.091 31.5339 230.02 31.8526 231.056 31.8526H231.783V32.7117H220.89V31.8526C222.584 31.8364 223.757 31.4774 224.423 30.7776C225.089 30.0777 225.421 28.8918 225.421 27.2118V4.89336L224.763 4.05032C224.114 3.21535 223.543 2.66475 223.039 2.39449C222.545 2.1323 221.825 1.9891 220.89 1.95683V1.08959H231.783L231.781 1.08555Z" fill="white"/>
</svg>
